<?xml version="1.0" encoding="UTF-8"?>
<svg width="512" height="512" viewBox="0 0 452 520" fill="none" xmlns="http://www.w3.org/2000/svg">
    <path d="M41 460L0 0H451.9L411 460L225.9 512" fill="#1572B6"/>
    <path d="M226 472.6L375.4 431.2L411 37.6H226" fill="#33A9DC"/>
    <path d="M226 208.1H296.9L300.2 157.6H226V109H354.5L353.2 123.9L339.5 278.6H226" fill="white"/>
    <path d="M226.2 361.4L225.9 361.5L162.1 344.1L158.6 304.9H109.6L116.4 381.8L225.9 414.9L226.2 414.8" fill="#EBEBEB"/>
    <path d="M225.9 208.1V257.7H158.2L155.5 226.7L154.2 208.1H225.9M225.9 109V157.6H97.4L96.1 144.2L93.7 123.9L92.4 109H225.9" fill="#EBEBEB"/>
</svg> 