<?xml version="1.0" encoding="UTF-8"?>
<svg width="512" height="512" viewBox="0 0 256 256" fill="none" xmlns="http://www.w3.org/2000/svg">
    <path d="M0 219.429L1.11632 216.571L99.5632 37.7143L99.7895 35.4286L53.5789 141.714L0 219.429Z" fill="#FFA000"/>
    <path d="M0 219.429L0.674211 216.571L52.9047 139.429L99.5632 37.7143L53.5789 142.286L0 219.429Z" fill="#F57F17"/>
    <path d="M135.158 76L99.5632 37.7143L99.7895 35.4286L135.947 75.4286L135.158 76Z" fill="#FFCA28"/>
    <path d="M255.326 219.429L219.284 42.7143L184.421 0L99.5632 37.7143L53.5789 141.714L0 219.429H255.326Z" fill="#FFA000"/>
    <path d="M161.684 105.143L135.158 76L99.5632 37.7143L161.684 105.143Z" fill="#FFA000"/>
    <path d="M255.326 219.429L161.684 105.143L135.158 76L255.326 219.429Z" fill="#FFCA28"/>
    <path d="M184.421 0L219.284 42.7143L255.326 219.429L184.421 0Z" fill="#FFCA28"/>
</svg> 