<?xml version="1.0" encoding="UTF-8"?>
<svg width="512" height="512" viewBox="0 0 256 256" fill="none" xmlns="http://www.w3.org/2000/svg">
    <path d="M251.172 116.594L139.4 4.828C138.74 4.168 137.97 3.644 137.127 3.286C136.284 2.928 135.384 2.743 134.476 2.741C133.568 2.739 132.667 2.921 131.823 3.275C130.978 3.629 130.206 4.15 129.543 4.807L103.65 30.7L136.7 63.75C137.978 63.365 139.316 63.223 140.644 63.331C141.971 63.439 143.264 63.796 144.451 64.382C145.638 64.968 146.697 65.773 147.566 66.756C148.436 67.739 149.099 68.882 149.518 70.121C149.937 71.36 150.104 72.672 150.011 73.98C149.917 75.287 149.565 76.563 148.973 77.733C148.381 78.903 147.561 79.942 146.563 80.789C145.565 81.636 144.409 82.273 143.161 82.664C141.913 83.055 140.598 83.192 139.292 83.068C137.986 82.944 136.718 82.562 135.561 81.943L103.65 49.95V138.6C104.901 139.223 106.036 140.06 107.001 141.075C107.967 142.09 108.746 143.267 109.301 144.548C109.856 145.829 110.178 147.193 110.252 148.582C110.326 149.971 110.151 151.361 109.735 152.686C109.319 154.011 108.67 155.245 107.82 156.327C106.97 157.409 105.934 158.319 104.764 159.008C103.595 159.697 102.313 160.153 100.984 160.353C99.6548 160.553 98.3026 160.493 96.9935 160.177C95.6844 159.861 94.4404 159.294 93.3251 158.505C92.2098 157.716 91.2422 156.719 90.4725 155.564C89.7028 154.41 89.1441 153.119 88.8246 151.762C88.505 150.405 88.4301 149.005 88.6037 147.624C88.7773 146.244 89.1963 144.91 89.8375 143.689C90.4787 142.469 91.3307 141.384 92.3497 140.493V48.807C91.3307 47.916 90.4787 46.831 89.8375 45.611C89.1963 44.39 88.7773 43.056 88.6037 41.676C88.4301 40.295 88.505 38.895 88.8246 37.538C89.1441 36.181 89.7028 34.89 90.4725 33.736C91.2422 32.581 92.2098 31.584 93.3251 30.795C94.4404 30.006 95.6844 29.439 96.9935 29.123C98.3026 28.807 99.6548 28.747 100.984 28.947C102.313 29.147 103.595 29.603 104.764 30.292C105.934 30.981 106.97 31.891 107.82 32.973L134.4 6.3C135.72 4.98 137.31 3.937 139.06 3.242C140.81 2.547 142.682 2.215 144.57 2.266C146.458 2.317 148.308 2.75 150.018 3.539C151.728 4.328 153.26 5.456 154.51 6.85L266.29 118.594C267.61 119.914 268.653 121.504 269.348 123.254C270.043 125.004 270.375 126.876 270.324 128.764C270.273 130.652 269.84 132.502 269.051 134.212C268.262 135.922 267.134 137.454 265.74 138.704L154.51 250C153.19 251.32 151.6 252.363 149.85 253.058C148.1 253.753 146.228 254.085 144.34 254.034C142.452 253.983 140.602 253.55 138.892 252.761C137.182 251.972 135.65 250.844 134.4 249.45L92.35 207.4C91.331 206.509 90.479 205.424 89.8378 204.204C89.1966 202.983 88.7776 201.649 88.604 200.269C88.4304 198.888 88.5053 197.488 88.8249 196.131C89.1444 194.774 89.7031 193.483 90.4728 192.329C91.2425 191.174 92.2101 190.177 93.3254 189.388C94.4407 188.599 95.6847 188.032 96.9938 187.716C98.3029 187.4 99.6551 187.34 101.984 187.54C102.313 187.74 103.595 188.196 104.764 188.885C105.934 189.574 106.97 190.484 107.82 191.566C108.67 192.648 109.319 193.882 109.735 195.207C110.151 196.532 110.326 197.922 110.252 199.311C110.178 200.7 109.856 202.064 109.301 203.345C108.746 204.626 107.967 205.803 107.001 206.818C106.036 207.833 104.901 208.67 103.65 209.293L143.55 249.193C144.21 249.853 144.98 250.377 145.823 250.735C146.666 251.093 147.566 251.278 148.474 251.28C149.382 251.282 150.283 251.1 151.127 250.746C151.972 250.392 152.744 249.871 153.407 249.214L262.487 140.134C263.147 139.474 263.671 138.704 264.029 137.861C264.387 137.018 264.572 136.118 264.574 135.21C264.576 134.302 264.394 133.401 264.04 132.557C263.686 131.712 263.165 130.94 262.508 130.277L251.172 116.594Z" fill="#F03C2E"/>
</svg> 