<?xml version="1.0" encoding="UTF-8"?>
<svg width="512" height="512" viewBox="0 0 452 520" fill="none" xmlns="http://www.w3.org/2000/svg">
    <path d="M41 460L0 0H451.9L411 460L225.9 512" fill="#E34F26"/>
    <path d="M226 472.6L375.4 431.2L411 37.6H226" fill="#EF652A"/>
    <path d="M226 208.1H151.1L146.5 157.6H226V109H93.4L94.7 123.9L108.4 278.6H226M226 361.4L225.7 361.5L162.1 344.1L158.6 304.9H109.6L116.4 381.8L225.7 414.9L226 414.8" fill="#EBEBEB"/>
    <path d="M225.9 208.1V257.7H295.5L289.6 344.1L225.9 361.5V414.8L335.3 381.8L336.1 373.4L349.2 223.9L350.5 208.1M225.9 109V157.6H352.2L353.3 144.2L355.7 123.9L357 109" fill="white"/>
</svg> 