<?xml version="1.0" encoding="UTF-8"?>
<svg width="512" height="512" viewBox="0 0 256 256" fill="none" xmlns="http://www.w3.org/2000/svg">
    <rect width="256" height="256" fill="#F7DF1E"/>
    <path d="M67.312 213.932L86.902 202.076C91.642 210.777 95.928 218.447 106.702 218.447C117.022 218.447 123.477 214.374 123.477 199.516V117.997H147.147V199.962C147.147 224.8 131.842 235.78 107.372 235.78C85.342 235.78 73.687 226.023 67.312 213.932" fill="black"/>
    <path d="M152.381 211.354L171.969 200.013C178.624 210.95 187.19 218.896 202.045 218.896C214.338 218.896 222.241 212.376 222.241 203.489C222.241 192.965 213.835 189.518 199.635 183.892L192.365 181.092C170.507 172.848 156.422 162.51 156.422 137.388C156.422 114.259 174.228 97.583 201.101 97.583C220.171 97.583 233.792 104.511 243.682 123.134L225.035 135.15C219.656 125.214 213.837 121.769 201.101 121.769C187.775 121.769 181.497 128.029 181.497 135.15C181.497 144.037 187.775 147.484 201.101 152.821L208.371 155.621C234.249 165.371 248.334 175.432 248.334 201.143C248.334 228.912 226.436 243.494 202.707 243.494C179.524 243.494 161.758 230.703 152.381 211.354" fill="black"/>
</svg> 