<?xml version="1.0" encoding="UTF-8"?>
<svg width="512" height="512" viewBox="0 0 256 256" fill="none" xmlns="http://www.w3.org/2000/svg">
    <path d="M119.616 0.0479994C119.866 0.0159994 120.133 0.0159994 120.383 0.0479994L238.383 25.7147C240.833 26.2307 242.667 28.2787 242.667 30.6627V186.667C242.667 188.733 241.283 190.597 239.3 191.373L120.633 247.373C120.383 247.473 120.133 247.573 119.85 247.607C119.6 247.64 119.333 247.64 119.083 247.607C118.833 247.573 118.583 247.473 118.333 247.373L0.999983 191.373C-0.983351 190.597 -2.36669 188.733 -2.36669 186.667V30.6627C-2.36669 28.2787 -0.533351 26.2307 1.91665 25.7147L119.616 0.0479994ZM154.667 182.467L202 153.8V80.3333L154.667 109V182.467ZM227.333 177.133V39.9667L121.667 63.4667V235.267L227.333 177.133ZM12.6666 39.9667V177.133L118.333 235.267V63.4667L12.6666 39.9667ZM53.9999 153.8L101.333 182.467V109L53.9999 80.3333V153.8Z" fill="black"/>
</svg> 