<?xml version="1.0" encoding="UTF-8"?>
<svg width="512" height="512" viewBox="0 0 256 256" fill="none" xmlns="http://www.w3.org/2000/svg">
    <path d="M248.069 135.368C248.069 135.368 248.069 135.368 248.069 135.368C248.069 135.368 248.069 135.368 248.069 135.368C248.069 135.368 248.069 135.368 248.069 135.368Z" fill="#336791"/>
    <path d="M196.847 38.072C183.547 24.772 166.347 17.472 147.347 17.472C128.347 17.472 111.147 24.772 97.8469 38.072C84.5469 51.372 77.2469 68.572 77.2469 87.572C77.2469 106.572 84.5469 123.772 97.8469 137.072C111.147 150.372 128.347 157.672 147.347 157.672C166.347 157.672 183.547 150.372 196.847 137.072C210.147 123.772 217.447 106.572 217.447 87.572C217.447 68.572 210.147 51.372 196.847 38.072Z" fill="#336791"/>
    <path d="M147.347 157.672C128.347 157.672 111.147 150.372 97.8469 137.072C84.5469 123.772 77.2469 106.572 77.2469 87.572C77.2469 68.572 84.5469 51.372 97.8469 38.072C111.147 24.772 128.347 17.472 147.347 17.472" stroke="#336791" stroke-width="2"/>
    <path d="M147.347 157.672C166.347 157.672 183.547 150.372 196.847 137.072C210.147 123.772 217.447 106.572 217.447 87.572C217.447 68.572 210.147 51.372 196.847 38.072C183.547 24.772 166.347 17.472 147.347 17.472" stroke="#336791" stroke-width="2"/>
    <path d="M147.347 238.472C186.347 238.472 217.447 207.372 217.447 168.372C217.447 129.372 186.347 98.272 147.347 98.272C108.347 98.272 77.2469 129.372 77.2469 168.372C77.2469 207.372 108.347 238.472 147.347 238.472Z" fill="#336791"/>
</svg> 