<?xml version="1.0" encoding="UTF-8"?>
<svg width="512" height="512" viewBox="0 0 256 256" fill="none" xmlns="http://www.w3.org/2000/svg">
    <path d="M210.483 73.824C207.689 72.724 204.843 71.687 201.961 70.715C202.477 68.291 202.935 65.893 203.329 63.529C208.172 39.5 204.258 20.125 192.206 13.388C180.596 6.889 162.213 13.65 143.27 30.998C141.108 32.947 138.979 35.01 136.895 37.176C135.235 35.596 133.544 34.068 131.828 32.598C111.901 14.197 92.308 6.854 80.206 13.651C68.55 20.205 64.784 38.499 69.115 61.393C69.614 64.383 70.219 67.421 70.922 70.493C67.558 71.605 64.309 72.818 61.196 74.13C39.718 82.685 26 95.348 26 108.467C26 122.032 40.883 135.725 63.419 144.486C65.823 145.421 68.277 146.291 70.771 147.098C70.022 150.341 69.386 153.521 68.869 156.621C64.729 179.12 68.684 197.058 80.316 203.579C92.375 210.334 112.159 203.441 131.509 185.647C133.351 183.967 135.164 182.196 136.942 180.343C139.196 182.585 141.505 184.733 143.857 186.777C162.604 203.86 180.937 210.276 192.607 203.721C204.703 196.948 208.877 177.693 204.364 154.114C203.95 151.734 203.448 149.317 202.863 146.872C204.594 146.29 206.292 145.678 207.946 145.036C231.572 136.196 247 122.69 247 108.467C247 95.285 232.839 82.533 210.483 73.824ZM204.716 135.427C203.226 135.998 201.697 136.543 200.138 137.066C196.839 126.519 192.244 115.287 186.563 103.757C191.998 92.479 196.399 81.462 199.557 71.105C202.283 72.028 204.936 73.008 207.494 74.052C226.326 81.444 237 92.059 237 108.467C237 117.791 225.397 127.972 204.716 135.427ZM195.506 157.069C197.454 166.678 198.309 175.61 198.147 183.307C198.002 190.223 196.919 195.742 195.089 199.401C191.675 206.201 184.691 209.382 176.182 209.382C167.504 209.382 157.159 205.829 146.118 198.89C143.935 197.012 141.779 195.024 139.659 192.941C146.142 185.832 152.625 177.57 158.973 168.342C170.055 167.324 180.573 165.682 190.204 163.45C190.718 165.664 191.157 167.855 191.517 170.009C192.739 175.674 193.362 181.411 193.362 187.098C193.362 191.332 192.719 195.445 191.461 199.401C191.461 199.401 191.461 199.401 191.461 199.401C191.461 199.401 193.774 180.01 195.506 157.069ZM180.046 153.867C174.894 155.143 169.456 156.214 163.829 157.068C161.144 152.513 158.297 147.858 155.302 143.129C152.338 138.452 149.261 133.842 146.086 129.321C149.238 124.843 152.291 120.275 155.233 115.642C158.216 110.935 161.079 106.3 163.808 101.762C169.556 102.636 175.075 103.742 180.296 105.07C185.191 115.691 189.152 126.094 192.033 135.86C188.959 142.099 184.856 148.226 180.046 153.867ZM128.124 187.098C123.841 182.521 119.558 177.41 115.339 171.842C119.435 171.999 123.611 172.08 127.853 172.08C132.172 172.08 136.429 171.992 140.607 171.819C136.479 177.315 132.262 182.386 128.124 187.098ZM91.444 153.747C86.089 152.614 80.985 151.265 76.177 149.711C71.431 148.178 66.933 146.461 62.733 144.577C44.003 136.99 36 126.174 36 108.467C36 92.016 46.704 81.347 65.592 73.922C68.342 72.807 71.247 71.762 74.285 70.792C77.483 81.324 81.935 92.521 87.431 103.95C81.877 115.541 77.373 126.898 74.145 137.552C72.575 137.025 71.039 136.476 69.541 135.904C64.705 134.146 60.186 132.161 56.032 129.974C53.09 128.416 50.338 126.733 47.803 124.941C45.267 123.149 42.956 121.255 40.89 119.277C38.823 117.299 37.016 115.243 35.486 113.129C33.956 111.015 32.718 108.849 31.785 106.651C30.852 104.453 30.232 102.229 29.933 100C29.634 97.771 29.659 95.542 30.008 93.333C30.357 91.124 31.028 88.942 32.012 86.815C32.996 84.688 34.288 82.622 35.871 80.646C37.454 78.67 39.321 76.791 41.454 75.029C43.587 73.267 45.979 71.628 48.609 70.133C51.239 68.638 54.099 67.293 57.166 66.111C60.233 64.929 63.5 63.915 66.944 63.079C70.388 62.243 73.999 61.589 77.754 61.124C81.509 60.659 85.401 60.386 89.407 60.309C93.413 60.232 97.526 60.352 101.722 60.671C105.918 60.99 110.187 61.508 114.505 62.224C118.823 62.94 123.18 63.854 127.551 64.963C131.922 66.072 136.296 67.376 140.648 68.871C144.999 70.366 149.31 72.051 153.557 73.922C157.804 75.793 161.97 77.85 166.033 80.088C170.096 82.326 174.037 84.744 177.834 87.333C181.631 89.922 185.267 92.68 188.719 95.599C192.171 98.518 195.422 101.596 198.449 104.823C201.476 108.05 204.262 111.425 206.785 114.93C209.308 118.435 211.552 122.068 213.495 125.813C215.438 129.558 217.064 133.413 218.354 137.361C219.644 141.309 220.583 145.347 221.153 149.458C221.723 153.569 221.918 157.75 221.729 161.982C221.54 166.214 220.962 170.485 220 174.778C219.038 179.071 217.687 183.375 215.953 187.673C214.219 191.971 212.099 196.251 209.603 200.493C207.107 204.735 204.234 208.927 201 213.051C197.766 217.175 194.171 221.219 190.23 225.165C186.289 229.111 182.002 232.946 177.385 236.651C172.768 240.356 167.823 243.92 162.567 247.325C157.311 250.73 151.747 253.965 145.893 257.012C140.039 260.059 133.899 262.906 127.492 265.535C121.085 268.164 114.415 270.563 107.502 272.714C100.589 274.865 93.437 276.755 86.066 278.374C78.695 279.993 71.109 281.328 63.328 282.37C55.547 283.412 47.575 284.148 39.432 284.57C31.289 284.992 23.001 285.093 14.587 284.863C6.173 284.633 -2.35 284.067 -10.959 283.156" stroke="#61DAFB" stroke-width="4"/>
    <circle cx="128" cy="108.467" r="21" fill="#61DAFB"/>
</svg> 